{
  "accessors": [
    {
      "bufferView": 0,
      "componentType": 5125,
      "count": 115134,
      "type": "SCALAR"
    },
    {
      "bufferView": 1,
      "componentType": 5126,
      "count": 20983,
      "max": [
        0.540000081062317,
        0.675000071525574,
        0.095698818564415
      ],
      "min": [
        -0.540000081062317,
        -0.675000071525574,
        -8.5681676864624e-08
      ],
      "type": "VEC3"
    },
    {
      "bufferView": 2,
      "componentType": 5126,
      "count": 20983,
      "type": "VEC3"
    },
    {
      "bufferView": 3,
      "componentType": 5126,
      "count": 20983,
      "type": "VEC4"
    },
    {
      "bufferView": 4,
      "componentType": 5126,
      "count": 20983,
      "type": "VEC2"
    }
  ],
  "asset": {
    "generator": "Adobe Substance 3D Painter 9.1.2",
    "version": "2.0"
  },
  "bufferViews": [
    {
      "buffer": 0,
      "byteLength": 460536,
      "target": 34963
    },
    {
      "buffer": 0,
      "byteLength": 251796,
      "byteOffset": 460536,
      "target": 34962
    },
    {
      "buffer": 0,
      "byteLength": 251796,
      "byteOffset": 712332,
      "target": 34962
    },
    {
      "buffer": 0,
      "byteLength": 335728,
      "byteOffset": 964128,
      "target": 34962
    },
    {
      "buffer": 0,
      "byteLength": 167864,
      "byteOffset": 1299856,
      "target": 34962
    }
  ],
  "buffers": [
    {
      "byteLength": 1467720,
      "uri": "Untitled.bin"
    }
  ],
  "images": [
    {
      "uri": "lambert1_baseColor_1001.png"
    },
    {
      "uri": "lambert1_occlusionRoughnessMetallic_1001.png"
    },
    {
      "uri": "lambert1_normal_1001.png"
    }
  ],
  "materials": [
    {
      "alphaMode": "OPAQUE",
      "name": "lambert1_1001",
      "normalTexture": {
        "index": 2
      },
      "occlusionTexture": {
        "index": 1
      },
      "pbrMetallicRoughness": {
        "baseColorTexture": {
          "index": 0
        },
        "metallicRoughnessTexture": {
          "index": 1
        }
      }
    }
  ],
  "meshes": [
    {
      "name": "LOD_3",
      "primitives": [
        {
          "attributes": {
            "NORMAL": 2,
            "POSITION": 1,
            "TANGENT": 3,
            "TEXCOORD_0": 4
          },
          "indices": 0,
          "material": 0,
          "mode": 4
        }
      ]
    }
  ],
  "nodes": [
    {
      "children": [
        1
      ],
      "name": "RootNode",
      "scale": [
        0.00999999977648258,
        0.00999999977648258,
        0.00999999977648258
      ]
    },
    {
      "children": [
        2
      ],
      "name": "LOD_3"
    },
    {
      "mesh": 0,
      "name": "LOD_3"
    }
  ],
  "samplers": [
    {
      "magFilter": 9729,
      "minFilter": 9985,
      "wrapS": 10497,
      "wrapT": 10497
    }
  ],
  "scene": 0,
  "scenes": [
    {
      "name": "Scene",
      "nodes": [
        0
      ]
    }
  ],
  "textures": [
    {
      "sampler": 0,
      "source": 0
    },
    {
      "sampler": 0,
      "source": 1
    },
    {
      "sampler": 0,
      "source": 2
    }
  ]
}