{
  "asset": {
    "generator": "glTF-Transform v4.1.2",
    "version": "2.0"
  },
  "accessors": [
    {
      "type": "SCALAR",
      "componentType": 5123,
      "count": 295275,
      "normalized": false,
      "byteOffset": 0,
      "bufferView": 0
    },
    {
      "type": "VEC3",
      "componentType": 5120,
      "count": 51558,
      "normalized": true,
      "byteOffset": 0,
      "bufferView": 1
    },
    {
      "type": "VEC4",
      "componentType": 5120,
      "count": 51558,
      "normalized": true,
      "byteOffset": 0,
      "bufferView": 2
    },
    {
      "type": "VEC3",
      "componentType": 5122,
      "count": 51558,
      "max": [
        26215,
        32767,
        2324
      ],
      "min": [
        -26215,
        -32767,
        -2324
      ],
      "normalized": true,
      "byteOffset": 0,
      "bufferView": 3
    },
    {
      "type": "VEC2",
      "componentType": 5123,
      "count": 51558,
      "normalized": true,
      "byteOffset": 0,
      "bufferView": 4
    }
  ],
  "bufferViews": [
    {
      "buffer": 1,
      "byteOffset": 0,
      "byteLength": 590550,
      "target": 34963,
      "extensions": {
        "EXT_meshopt_compression": {
          "buffer": 0,
          "byteOffset": 0,
          "byteLength": 115636,
          "mode": "TRIANGLES",
          "byteStride": 2,
          "count": 295275
        }
      }
    },
    {
      "buffer": 1,
      "byteOffset": 590552,
      "byteLength": 206232,
      "target": 34962,
      "byteStride": 4,
      "extensions": {
        "EXT_meshopt_compression": {
          "buffer": 0,
          "byteOffset": 115636,
          "byteLength": 106340,
          "mode": "ATTRIBUTES",
          "filter": "OCTAHEDRAL",
          "byteStride": 4,
          "count": 51558
        }
      }
    },
    {
      "buffer": 1,
      "byteOffset": 796784,
      "byteLength": 206232,
      "target": 34962,
      "byteStride": 4,
      "extensions": {
        "EXT_meshopt_compression": {
          "buffer": 0,
          "byteOffset": 221976,
          "byteLength": 106799,
          "mode": "ATTRIBUTES",
          "filter": "OCTAHEDRAL",
          "byteStride": 4,
          "count": 51558
        }
      }
    },
    {
      "buffer": 1,
      "byteOffset": 1003016,
      "byteLength": 412464,
      "target": 34962,
      "byteStride": 8,
      "extensions": {
        "EXT_meshopt_compression": {
          "buffer": 0,
          "byteOffset": 328776,
          "byteLength": 220817,
          "mode": "ATTRIBUTES",
          "byteStride": 8,
          "count": 51558
        }
      }
    },
    {
      "buffer": 1,
      "byteOffset": 1415480,
      "byteLength": 206232,
      "target": 34962,
      "byteStride": 4,
      "extensions": {
        "EXT_meshopt_compression": {
          "buffer": 0,
          "byteOffset": 549596,
          "byteLength": 134078,
          "mode": "ATTRIBUTES",
          "byteStride": 4,
          "count": 51558
        }
      }
    }
  ],
  "samplers": [
    {
      "magFilter": 9729,
      "minFilter": 9985,
      "wrapS": 10497,
      "wrapT": 10497
    }
  ],
  "textures": [
    {
      "sampler": 0,
      "extensions": {
        "EXT_texture_webp": {
          "source": 1
        }
      }
    },
    {
      "sampler": 0,
      "extensions": {
        "EXT_texture_webp": {
          "source": 0
        }
      }
    }
  ],
  "images": [
    {
      "mimeType": "image/webp",
      "uri": "lambert1_occlusionRoughnessMetallic_1001.webp"
    },
    {
      "mimeType": "image/webp",
      "uri": "lambert1_normal_1001.webp"
    }
  ],
  "buffers": [
    {
      "uri": "Untitled.bin",
      "byteLength": 683676
    },
    {
      "byteLength": 1621712,
      "extensions": {
        "EXT_meshopt_compression": {
          "fallback": true
        }
      }
    }
  ],
  "materials": [
    {
      "name": "lambert1_1001",
      "pbrMetallicRoughness": {
        "baseColorFactor": [
          0.508881320845802,
          0.508881320845802,
          0.508881320845802,
          1
        ],
        "metallicRoughnessTexture": {
          "index": 1
        }
      },
      "normalTexture": {
        "index": 0
      },
      "occlusionTexture": {
        "index": 1
      }
    }
  ],
  "meshes": [
    {
      "name": "LOD_2",
      "primitives": [
        {
          "attributes": {
            "NORMAL": 1,
            "TANGENT": 2,
            "POSITION": 3,
            "TEXCOORD_0": 4
          },
          "mode": 4,
          "material": 0,
          "indices": 0
        }
      ]
    }
  ],
  "nodes": [
    {
      "name": "LOD_2",
      "translation": [
        0,
        0,
        0.0004784931321778935
      ],
      "scale": [
        0.006750000564381463,
        0.006750000564381463,
        0.006750000564381463
      ],
      "mesh": 0
    }
  ],
  "scenes": [
    {
      "name": "Scene",
      "nodes": [
        0
      ]
    }
  ],
  "scene": 0,
  "extensionsUsed": [
    "EXT_meshopt_compression",
    "EXT_texture_webp",
    "KHR_mesh_quantization"
  ],
  "extensionsRequired": [
    "EXT_meshopt_compression",
    "EXT_texture_webp",
    "KHR_mesh_quantization"
  ]
}