{
  "asset": {
    "generator": "glTF-Transform v4.1.2",
    "version": "2.0"
  },
  "accessors": [
    {
      "type": "SCALAR",
      "componentType": 5123,
      "count": 295287,
      "normalized": false,
      "byteOffset": 0,
      "bufferView": 0
    },
    {
      "type": "VEC3",
      "componentType": 5120,
      "count": 51571,
      "normalized": true,
      "byteOffset": 0,
      "bufferView": 1
    },
    {
      "type": "VEC4",
      "componentType": 5120,
      "count": 51571,
      "normalized": true,
      "byteOffset": 0,
      "bufferView": 2
    },
    {
      "type": "VEC3",
      "componentType": 5122,
      "count": 51571,
      "max": [
        26215,
        32767,
        2324
      ],
      "min": [
        -26215,
        -32767,
        -2324
      ],
      "normalized": true,
      "byteOffset": 0,
      "bufferView": 3
    },
    {
      "type": "VEC2",
      "componentType": 5123,
      "count": 51571,
      "normalized": true,
      "byteOffset": 0,
      "bufferView": 4
    }
  ],
  "bufferViews": [
    {
      "buffer": 1,
      "byteOffset": 0,
      "byteLength": 590574,
      "target": 34963,
      "extensions": {
        "EXT_meshopt_compression": {
          "buffer": 0,
          "byteOffset": 0,
          "byteLength": 115776,
          "mode": "TRIANGLES",
          "byteStride": 2,
          "count": 295287
        }
      }
    },
    {
      "buffer": 1,
      "byteOffset": 590576,
      "byteLength": 206284,
      "target": 34962,
      "byteStride": 4,
      "extensions": {
        "EXT_meshopt_compression": {
          "buffer": 0,
          "byteOffset": 115776,
          "byteLength": 106369,
          "mode": "ATTRIBUTES",
          "filter": "OCTAHEDRAL",
          "byteStride": 4,
          "count": 51571
        }
      }
    },
    {
      "buffer": 1,
      "byteOffset": 796860,
      "byteLength": 206284,
      "target": 34962,
      "byteStride": 4,
      "extensions": {
        "EXT_meshopt_compression": {
          "buffer": 0,
          "byteOffset": 222148,
          "byteLength": 107039,
          "mode": "ATTRIBUTES",
          "filter": "OCTAHEDRAL",
          "byteStride": 4,
          "count": 51571
        }
      }
    },
    {
      "buffer": 1,
      "byteOffset": 1003144,
      "byteLength": 412568,
      "target": 34962,
      "byteStride": 8,
      "extensions": {
        "EXT_meshopt_compression": {
          "buffer": 0,
          "byteOffset": 329188,
          "byteLength": 220997,
          "mode": "ATTRIBUTES",
          "byteStride": 8,
          "count": 51571
        }
      }
    },
    {
      "buffer": 1,
      "byteOffset": 1415712,
      "byteLength": 206284,
      "target": 34962,
      "byteStride": 4,
      "extensions": {
        "EXT_meshopt_compression": {
          "buffer": 0,
          "byteOffset": 550188,
          "byteLength": 134471,
          "mode": "ATTRIBUTES",
          "byteStride": 4,
          "count": 51571
        }
      }
    }
  ],
  "samplers": [
    {
      "magFilter": 9729,
      "minFilter": 9985,
      "wrapS": 10497,
      "wrapT": 10497
    }
  ],
  "textures": [
    {
      "sampler": 0,
      "extensions": {
        "KHR_texture_basisu": {
          "source": 0
        }
      }
    },
    {
      "sampler": 0,
      "extensions": {
        "EXT_texture_webp": {
          "source": 2
        }
      }
    },
    {
      "sampler": 0,
      "extensions": {
        "KHR_texture_basisu": {
          "source": 1
        }
      }
    }
  ],
  "images": [
    {
      "mimeType": "image/ktx2",
      "uri": "lambert1_baseColor_1001.ktx2"
    },
    {
      "mimeType": "image/ktx2",
      "uri": "lambert1_occlusionRoughnessMetallic_1001.ktx2"
    },
    {
      "mimeType": "image/webp",
      "uri": "lambert1_normal_1001.webp"
    }
  ],
  "buffers": [
    {
      "uri": "Untitled.bin",
      "byteLength": 684660
    },
    {
      "byteLength": 1621996,
      "extensions": {
        "EXT_meshopt_compression": {
          "fallback": true
        }
      }
    }
  ],
  "materials": [
    {
      "name": "lambert1_1001",
      "pbrMetallicRoughness": {
        "baseColorTexture": {
          "index": 0
        },
        "metallicRoughnessTexture": {
          "index": 2
        }
      },
      "normalTexture": {
        "index": 1
      },
      "occlusionTexture": {
        "index": 2
      }
    }
  ],
  "meshes": [
    {
      "name": "LOD_2",
      "primitives": [
        {
          "attributes": {
            "NORMAL": 1,
            "TANGENT": 2,
            "POSITION": 3,
            "TEXCOORD_0": 4
          },
          "mode": 4,
          "material": 0,
          "indices": 0
        }
      ]
    }
  ],
  "nodes": [
    {
      "name": "RootNode",
      "scale": [
        0.00999999977648258,
        0.00999999977648258,
        0.00999999977648258
      ],
      "children": [
        1
      ]
    },
    {
      "name": "LOD_2",
      "children": [
        2
      ]
    },
    {
      "name": "LOD_2",
      "translation": [
        0,
        0,
        0.04784931428730488
      ],
      "scale": [
        0.6750000715255737,
        0.6750000715255737,
        0.6750000715255737
      ],
      "mesh": 0
    }
  ],
  "scenes": [
    {
      "name": "Scene",
      "nodes": [
        0
      ]
    }
  ],
  "scene": 0,
  "extensionsUsed": [
    "EXT_meshopt_compression",
    "EXT_texture_webp",
    "KHR_mesh_quantization",
    "KHR_texture_basisu"
  ],
  "extensionsRequired": [
    "EXT_meshopt_compression",
    "EXT_texture_webp",
    "KHR_mesh_quantization",
    "KHR_texture_basisu"
  ]
}