{
  "asset": {
    "generator": "glTF-Transform v4.1.2",
    "version": "2.0"
  },
  "accessors": [
    {
      "type": "SCALAR",
      "componentType": 5125,
      "count": 896169,
      "normalized": false,
      "byteOffset": 0,
      "bufferView": 0
    },
    {
      "type": "VEC3",
      "componentType": 5120,
      "count": 150501,
      "normalized": true,
      "byteOffset": 0,
      "bufferView": 1
    },
    {
      "type": "VEC4",
      "componentType": 5120,
      "count": 150501,
      "normalized": true,
      "byteOffset": 0,
      "bufferView": 2
    },
    {
      "type": "VEC3",
      "componentType": 5122,
      "count": 150501,
      "max": [
        26215,
        32767,
        2324
      ],
      "min": [
        -26215,
        -32767,
        -2324
      ],
      "normalized": true,
      "byteOffset": 0,
      "bufferView": 3
    },
    {
      "type": "VEC2",
      "componentType": 5123,
      "count": 150501,
      "normalized": true,
      "byteOffset": 0,
      "bufferView": 4
    }
  ],
  "bufferViews": [
    {
      "buffer": 1,
      "byteOffset": 0,
      "byteLength": 3584676,
      "target": 34963,
      "extensions": {
        "EXT_meshopt_compression": {
          "buffer": 0,
          "byteOffset": 0,
          "byteLength": 343532,
          "mode": "TRIANGLES",
          "byteStride": 4,
          "count": 896169
        }
      }
    },
    {
      "buffer": 1,
      "byteOffset": 3584676,
      "byteLength": 602004,
      "target": 34962,
      "byteStride": 4,
      "extensions": {
        "EXT_meshopt_compression": {
          "buffer": 0,
          "byteOffset": 343532,
          "byteLength": 310251,
          "mode": "ATTRIBUTES",
          "filter": "OCTAHEDRAL",
          "byteStride": 4,
          "count": 150501
        }
      }
    },
    {
      "buffer": 1,
      "byteOffset": 4186680,
      "byteLength": 602004,
      "target": 34962,
      "byteStride": 4,
      "extensions": {
        "EXT_meshopt_compression": {
          "buffer": 0,
          "byteOffset": 653784,
          "byteLength": 308470,
          "mode": "ATTRIBUTES",
          "filter": "OCTAHEDRAL",
          "byteStride": 4,
          "count": 150501
        }
      }
    },
    {
      "buffer": 1,
      "byteOffset": 4788684,
      "byteLength": 1204008,
      "target": 34962,
      "byteStride": 8,
      "extensions": {
        "EXT_meshopt_compression": {
          "buffer": 0,
          "byteOffset": 962256,
          "byteLength": 572803,
          "mode": "ATTRIBUTES",
          "byteStride": 8,
          "count": 150501
        }
      }
    },
    {
      "buffer": 1,
      "byteOffset": 5992692,
      "byteLength": 602004,
      "target": 34962,
      "byteStride": 4,
      "extensions": {
        "EXT_meshopt_compression": {
          "buffer": 0,
          "byteOffset": 1535060,
          "byteLength": 348953,
          "mode": "ATTRIBUTES",
          "byteStride": 4,
          "count": 150501
        }
      }
    }
  ],
  "samplers": [
    {
      "magFilter": 9729,
      "minFilter": 9985,
      "wrapS": 10497,
      "wrapT": 10497
    }
  ],
  "textures": [
    {
      "sampler": 0,
      "extensions": {
        "EXT_texture_webp": {
          "source": 0
        }
      }
    },
    {
      "sampler": 0,
      "extensions": {
        "EXT_texture_webp": {
          "source": 2
        }
      }
    },
    {
      "sampler": 0,
      "extensions": {
        "EXT_texture_webp": {
          "source": 1
        }
      }
    }
  ],
  "images": [
    {
      "mimeType": "image/webp",
      "uri": "lambert1_baseColor_1001.webp"
    },
    {
      "mimeType": "image/webp",
      "uri": "lambert1_occlusionRoughnessMetallic_1001.webp"
    },
    {
      "mimeType": "image/webp",
      "uri": "lambert1_normal_1001.webp"
    }
  ],
  "buffers": [
    {
      "uri": "Untitled.bin",
      "byteLength": 1884016
    },
    {
      "byteLength": 6594696,
      "extensions": {
        "EXT_meshopt_compression": {
          "fallback": true
        }
      }
    }
  ],
  "materials": [
    {
      "name": "lambert1_1001",
      "pbrMetallicRoughness": {
        "baseColorTexture": {
          "index": 0
        },
        "metallicRoughnessTexture": {
          "index": 2
        }
      },
      "normalTexture": {
        "index": 1
      },
      "occlusionTexture": {
        "index": 2
      }
    }
  ],
  "meshes": [
    {
      "name": "LOD_1",
      "primitives": [
        {
          "attributes": {
            "NORMAL": 1,
            "TANGENT": 2,
            "POSITION": 3,
            "TEXCOORD_0": 4
          },
          "mode": 4,
          "material": 0,
          "indices": 0
        }
      ]
    }
  ],
  "nodes": [
    {
      "name": "LOD_1",
      "translation": [
        0,
        0,
        0.0004784931321778935
      ],
      "scale": [
        0.006750000564381463,
        0.006750000564381463,
        0.006750000564381463
      ],
      "mesh": 0
    }
  ],
  "scenes": [
    {
      "name": "Scene",
      "nodes": [
        0
      ]
    }
  ],
  "scene": 0,
  "extensionsUsed": [
    "EXT_meshopt_compression",
    "EXT_texture_webp",
    "KHR_mesh_quantization"
  ],
  "extensionsRequired": [
    "EXT_meshopt_compression",
    "EXT_texture_webp",
    "KHR_mesh_quantization"
  ]
}